<!-- <svg xmlns="http://www.w3.org/2000/svg" width="1200" height="1200" class="icon" viewBox="0 0 3280.944 2800"><path fill="#41b883" d="M1645.332 601.004h375.675L1081.82 2238.478 142.636 601.004h718.477l220.708 379.704 216.013-379.704z"/><path fill="#41b883" d="M142.636 601.004l939.185 1637.474 939.186-1637.474h-375.675l-563.51 982.484-568.208-982.484z"/><path fill="#35495e" d="M513.188 601.004l568.207 987.23 563.511-987.23h-347.498l-216.013 379.704-220.708-379.704zM1607.792 1311.83l594.678 2.293 187.353-316.325-598.662 2.292zM2198.506 1909.57C2867.436 732.7 2939.502 605.426 2937.874 603.78c-.715-.723 45.303-1.314 102.262-1.314s103.562.428 103.562.951c0 .523-208.57 367.978-463.491 816.567L2216.715 2235.6l-102.1.596-102.102.596z"/><path fill="#41b883" d="M1680.563 2233.328c0-1.34 168.208-298.145 440.375-777.048a4135645.775 4135645.775 0 00337.619-594.19l146.13-257.25 170.746-.04 170.747-.04-5.536 9.741c-3.044 5.358-43.727 77.302-90.407 159.875-85.356 150.992-337.562 595.163-656.602 1156.373l-172 302.559-170.536.588c-93.795.322-170.536.069-170.536-.567z"/><path fill="#35495e" d="M1429.783 1625.351l594.679 2.292 187.353-316.324-598.662 2.292z"/><path fill="#41b883" d="M1524.207 1464.903l608.285 6.877 173.746-320.909h-619.072z"/></svg> -->
<svg version="1.0" xmlns="http://www.w3.org/2000/svg" viewBox="0 0 840 839"><path d="M161.5 31c-66.9.7-64.5.5-80.5 8.1-19.4 9.2-35.8 26.4-43.6 45.7-5.6 14-5.5 12.2-6.6 90.7-1.1 84.7-.3 539.8 1.1 555 .6 7.4 1.7 12.4 4.3 19.1 10.6 28.2 26.9 44.1 55.3 54.2 6 2.1 9.7 2.6 25.5 3.3 30.8 1.3 445.2 2.2 536 1.1 79.5-1 82.8-1.1 90.5-3.2 19.5-5.2 38.3-18.5 49.3-34.8 5.4-7.9 8.5-14.3 11.7-24.2l2.8-8.5.8-46c.9-58.3.9-482.8 0-544l-.7-46-3.2-9.4c-8.8-25.7-21.6-40.8-43.7-51.5-18.8-9.2-15.2-8.8-82.5-9.7-69.2-.8-428.7-.8-516.5.1zm261.6 135.7c4.6 10.2 31.4 72.2 52.2 120.8l18.4 43 34.9.7c19.2.4 60.9 1 92.7 1.4 31.8.4 57.7.9 57.5 1.3-.3.7-8.7 8.5-72.8 67.6-44.7 41.3-84.1 78.5-84.7 80-.4 1.3 5.5 15.2 38.2 90.5 39.6 91 46 106.4 43.9 105.6-3.2-1.2-52.2-33.3-155.4-101.5-15.1-10-28.2-18-29-17.8-.8.2-21.1 13.4-45 29.2-83.2 55.1-137.4 90.5-138.6 90.5-.2 0-.4-.5-.4-1.1 0-1.3 28.6-67.7 59.9-139.4 13.3-30.3 24-55.5 23.9-56.1-.2-.6-12.4-12.4-27.3-26.1-97.8-90.2-130.4-120.4-131-121.3-.4-.7 4.1-1 13.7-1 43.7-.1 170.3-2.1 170.9-2.7.4-.5 9.5-21.3 20.2-46.3 33-77.1 53.5-124 54.3-124 .2 0 1.8 3 3.5 6.7z"/></svg>